<?xml version="1.0" encoding="utf-8"?>
<!-- Generator: Adobe Illustrator 21.1.0, SVG Export Plug-In . SVG Version: 6.00 Build 0)  -->
<svg version="1.1" id="Layer_1" xmlns="http://www.w3.org/2000/svg" xmlns:xlink="http://www.w3.org/1999/xlink" x="0px" y="0px"
	 viewBox="0 0 50 50" style="enable-background:new 0 0 50 50;" xml:space="preserve">
<style type="text/css">
	.st0{fill:#FFFFFF;stroke:#FFFFFF;stroke-miterlimit:10;}
	.st1{fill:#F9C780;}
	.st2{fill:#3A7BBF;}
	.st3{fill:#53AF32;}
	.st4{fill:#FCE688;}
	.st5{fill:#F98282;}
	.st6{fill:#6BC0AA;}
	.st7{fill:#FACBC0;}
</style>
<g>
	<rect x="0" y="0" class="st0" width="50" height="50"/>
	<path class="st0" d="M50.1,50.1H-0.1V-0.1h50.2V50.1z M0.1,49.9h49.8V0.1H0.1V49.9z"/>
</g>
<g>
	<g>
		<g>
			<g>
				<g>
					<path class="st1" d="M28.6,26.8c-0.7,0-1.3-0.2-1.8-0.7c-0.5-0.5-0.7-1-0.7-1.8c0-0.5,0.1-0.9,0.3-1.2c0.2-0.4,0.5-0.6,0.9-0.9
						c0.4-0.2,0.8-0.3,1.3-0.3c0.4,0,0.7,0.1,1.1,0.2c0.4,0.2,0.7,0.4,0.9,0.7l0,0.1L30,23.6l-0.1-0.1c-0.4-0.4-0.8-0.6-1.3-0.6
						c-0.4,0-0.8,0.1-1,0.4c-0.3,0.3-0.4,0.6-0.4,1c0,0.3,0.1,0.5,0.2,0.8c0.1,0.2,0.3,0.4,0.5,0.5c0.2,0.1,0.5,0.2,0.8,0.2
						c0.2,0,0.5,0,0.6-0.1c0.2-0.1,0.4-0.3,0.7-0.5l0.1-0.1l0.7,0.7l-0.1,0.1c-0.3,0.3-0.7,0.6-1,0.7C29.3,26.7,29,26.8,28.6,26.8z"
						/>
				</g>
			</g>
		</g>
		<g>
			<g>
				<path d="M28.6,27.6c-0.9,0-1.7-0.3-2.3-0.9c-0.6-0.6-0.9-1.4-0.9-2.3c0-0.6,0.1-1.1,0.4-1.6c0.3-0.5,0.7-0.9,1.2-1.1
					c0.5-0.3,1.1-0.4,1.6-0.4c0.5,0,1,0.1,1.4,0.3c0.5,0.2,0.9,0.5,1.2,0.9l0.1,0.1l-0.9,0.9l-0.1-0.1c-0.5-0.5-1.1-0.8-1.7-0.8
					c-0.5,0-1,0.2-1.4,0.5c-0.4,0.4-0.5,0.8-0.5,1.4c0,0.4,0.1,0.7,0.2,1c0.2,0.3,0.4,0.5,0.7,0.7c0.3,0.2,0.6,0.2,1,0.2
					c0.3,0,0.6-0.1,0.9-0.2c0.3-0.1,0.5-0.3,0.9-0.6l0.1-0.1l0.9,0.9l-0.1,0.1c-0.4,0.4-0.9,0.7-1.3,0.9
					C29.6,27.6,29.1,27.6,28.6,27.6z M28.6,21.5c-0.6,0-1.1,0.1-1.5,0.4c-0.5,0.3-0.8,0.6-1.1,1.1c-0.3,0.4-0.4,0.9-0.4,1.5
					c0,0.9,0.3,1.6,0.8,2.2c0.6,0.6,1.3,0.8,2.2,0.8c0.5,0,0.9-0.1,1.3-0.2c0.4-0.1,0.7-0.4,1.1-0.8l-0.6-0.7
					c-0.3,0.3-0.6,0.5-0.8,0.6c-0.3,0.1-0.6,0.2-0.9,0.2c-0.4,0-0.8-0.1-1.1-0.3c-0.3-0.2-0.6-0.4-0.8-0.8c-0.2-0.3-0.3-0.7-0.3-1.1
					c0-0.6,0.2-1.1,0.6-1.5c0.4-0.4,0.9-0.6,1.5-0.6c0.7,0,1.3,0.3,1.8,0.8l0.6-0.6c-0.3-0.3-0.7-0.6-1.1-0.8
					C29.6,21.6,29.1,21.5,28.6,21.5z"/>
			</g>
		</g>
	</g>
	<g>
		<g>
			<g>
				<circle class="st2" cx="38.8" cy="23.8" r="2.1"/>
			</g>
		</g>
		<g>
			<g>
				<path d="M37.3,27.7H36v-6.1h1.3c0.7,0,1.1,0.1,1.4,0.2c0.3,0.1,0.5,0.3,0.7,0.6c0.2,0.3,0.3,0.6,0.3,1c0,0.4-0.1,0.8-0.3,1.1
					c-0.2,0.3-0.5,0.5-0.9,0.6c-0.2,0.1-0.6,0.1-1.1,0.1V27.7z M36.2,27.5h0.9V25h0.1c0.6,0,0.9,0,1.2-0.1c0.3-0.1,0.6-0.3,0.8-0.5
					c0.2-0.3,0.3-0.6,0.3-1c0-0.4-0.1-0.7-0.2-0.9c-0.2-0.2-0.4-0.4-0.6-0.5c-0.3-0.1-0.7-0.2-1.4-0.2h-1.1V27.5z M37.5,24.1h-0.5
					v-1.4h0.4c0.4,0,0.6,0,0.8,0.1c0.2,0.1,0.3,0.3,0.3,0.6c0,0.2,0,0.3-0.1,0.4c-0.1,0.1-0.2,0.2-0.3,0.2
					C38,24.1,37.8,24.1,37.5,24.1z M37.3,23.9h0.3c0.3,0,0.5,0,0.6-0.1c0.1,0,0.2-0.1,0.2-0.2c0.1-0.1,0.1-0.2,0.1-0.3
					c0-0.2-0.1-0.3-0.2-0.4c-0.1,0-0.3-0.1-0.7-0.1h-0.2V23.9z"/>
			</g>
		</g>
	</g>
	<g>
		<g>
			<g>
				<path d="M9.7,27.6c-0.9,0-1.7-0.3-2.3-0.9c-0.6-0.6-0.9-1.4-0.9-2.3c0-0.6,0.1-1.1,0.4-1.6c0.3-0.5,0.7-0.9,1.2-1.1
					c0.5-0.3,1.1-0.4,1.6-0.4c0.5,0,1,0.1,1.4,0.3c0.5,0.2,0.9,0.5,1.2,0.9l0.1,0.1l-0.9,0.9l-0.1-0.1c-0.5-0.5-1.1-0.8-1.7-0.8
					c-0.5,0-1,0.2-1.4,0.5c-0.4,0.4-0.5,0.8-0.5,1.4c0,0.4,0.1,0.7,0.2,1c0.2,0.3,0.4,0.5,0.7,0.7c0.3,0.2,0.6,0.2,1,0.2
					c0.3,0,0.6-0.1,0.9-0.2c0.3-0.1,0.5-0.3,0.9-0.6l0.1-0.1l0.9,0.9l-0.1,0.1c-0.4,0.4-0.9,0.7-1.3,0.9
					C10.7,27.6,10.2,27.6,9.7,27.6z M9.7,21.5c-0.6,0-1.1,0.1-1.5,0.4c-0.5,0.3-0.8,0.6-1.1,1.1c-0.3,0.4-0.4,0.9-0.4,1.5
					c0,0.9,0.3,1.6,0.8,2.2c0.6,0.6,1.3,0.8,2.2,0.8c0.5,0,0.9-0.1,1.3-0.2c0.4-0.1,0.7-0.4,1.1-0.8l-0.6-0.7
					c-0.3,0.3-0.6,0.5-0.8,0.6c-0.3,0.1-0.6,0.2-0.9,0.2c-0.4,0-0.8-0.1-1.1-0.3c-0.3-0.2-0.6-0.4-0.8-0.8c-0.2-0.3-0.3-0.7-0.3-1.1
					c0-0.6,0.2-1.1,0.6-1.5c0.4-0.4,0.9-0.6,1.5-0.6c0.7,0,1.3,0.3,1.8,0.8l0.6-0.6c-0.3-0.3-0.7-0.6-1.1-0.8
					C10.7,21.6,10.2,21.5,9.7,21.5z"/>
			</g>
		</g>
	</g>
	<g>
		<g>
			<g>
				<g>
					<path class="st3" d="M16.3,26.5c0.5,0,1-0.2,1.4-0.6c0.4-0.4,0.6-0.9,0.6-1.4c0-0.6-0.2-1-0.6-1.4c-0.4-0.4-0.8-0.6-1.4-0.6
						L16.3,26.5C16.3,26.5,16.3,26.5,16.3,26.5z"/>
				</g>
			</g>
			<g>
				<g>
					<path class="st3" d="M16.3,22.5c0.5,0,0.9,0.2,1.3,0.6c0.4,0.4,0.6,0.9,0.6,1.4c0,0.6-0.2,1-0.6,1.4c-0.4,0.4-0.8,0.6-1.4,0.6"
						/>
				</g>
			</g>
			<g>
				<g>
					<path class="st4" d="M16.2,27.5C16.3,27.5,16.3,27.5,16.2,27.5c0.9,0,1.6-0.3,2.2-0.9c0.6-0.6,0.9-1.3,0.9-2.2
						c0-0.9-0.3-1.6-0.9-2.2c-0.6-0.6-1.3-0.9-2.1-0.9c0,0,0,0,0,0"/>
				</g>
			</g>
		</g>
		<g>
			<g>
				<path d="M15.5,27.6c-0.9,0-1.7-0.3-2.3-0.9c-0.6-0.6-0.9-1.4-0.9-2.2c0-0.6,0.1-1.1,0.4-1.6c0.3-0.5,0.7-0.9,1.2-1.2
					c0.5-0.3,1-0.4,1.6-0.4c0.9,0,1.6,0.3,2.2,0.9c0.6,0.6,0.9,1.4,0.9,2.3c0,0.9-0.3,1.6-0.9,2.2C17.1,27.3,16.3,27.6,15.5,27.6z
					 M15.5,21.5c-0.5,0-1,0.1-1.5,0.4c-0.5,0.3-0.8,0.6-1.1,1.1c-0.3,0.5-0.4,1-0.4,1.5c0,0.8,0.3,1.5,0.8,2.1
					c0.6,0.6,1.3,0.9,2.1,0.9c0.8,0,1.5-0.3,2.1-0.9c0.6-0.6,0.9-1.3,0.9-2.1c0-0.8-0.3-1.6-0.9-2.1C17,21.8,16.3,21.5,15.5,21.5z
					 M15.5,26.6c-0.5,0-0.9-0.2-1.3-0.5c-0.5-0.4-0.7-0.9-0.7-1.6c0-0.6,0.2-1.1,0.6-1.5c0.4-0.4,0.9-0.6,1.4-0.6
					c0.6,0,1,0.2,1.4,0.6c0.4,0.4,0.6,0.9,0.6,1.5c0,0.6-0.2,1.1-0.6,1.5C16.5,26.4,16,26.6,15.5,26.6z M15.5,22.6
					c-0.5,0-1,0.2-1.3,0.5c-0.4,0.4-0.5,0.8-0.5,1.4c0,0.6,0.2,1.1,0.7,1.5c0.3,0.3,0.7,0.4,1.2,0.4c0.5,0,0.9-0.2,1.3-0.5
					c0.4-0.4,0.5-0.8,0.5-1.4c0-0.5-0.2-1-0.5-1.4C16.4,22.7,16,22.6,15.5,22.6z"/>
			</g>
		</g>
	</g>
	<g>
		<g id="Layer_2_1_">
			<g>
				<g>
					<polyline class="st5" points="23.1,24.3 21.3,21.4 19.6,21.4 19.6,26.9 19.8,26.9 19.8,26.7 19.8,26.7 19.8,21.6 21.2,21.6 
						23.1,24.6 					"/>
				</g>
				<g>
					<polygon class="st5" points="19.9,27 19.6,27 19.6,21.4 21.4,21.4 23.2,24.3 23.1,24.3 21.3,21.4 19.7,21.4 19.7,26.9 
						19.8,26.9 19.8,21.5 21.3,21.5 23.2,24.6 23.1,24.7 21.2,21.6 19.9,21.6 19.9,26.7 19.9,26.7 					"/>
				</g>
			</g>
			<g>
				<g>
					<polyline class="st5" points="21.3,24.9 23.1,27.8 24.8,27.8 24.8,22.3 24.7,22.3 24.7,22.4 24.7,22.4 24.7,27.6 23.2,27.6 
						21.3,24.6 					"/>
				</g>
				<g>
					<polygon class="st5" points="24.9,27.8 23.1,27.8 21.3,24.9 21.4,24.9 23.2,27.7 24.8,27.7 24.8,22.3 24.7,22.3 24.7,27.6 
						23.2,27.6 21.3,24.6 21.4,24.5 23.3,27.5 24.6,27.5 24.6,22.5 24.6,22.4 24.6,22.2 24.9,22.2 					"/>
				</g>
			</g>
		</g>
		<g id="Layer_3_1_">
			<g>
				<g>
					<g>
						<path d="M24.5,27.4h-1.1l-2.1-3.3v3.3H20v-5.5h1.1l0,0l2.1,3.2v-3.3h1.2V27.4z M23.5,27.2h0.8V22h-0.8v3.7L21,22h-0.8v5.1H21
							v-3.7L23.5,27.2z"/>
					</g>
				</g>
			</g>
		</g>
	</g>
	<g>
		<g>
			<g>
				<rect x="31" y="26.7" class="st6" width="2.8" height="0.6"/>
			</g>
		</g>
		<g>
			<g>
				<rect x="32" y="24.3" class="st6" width="2.8" height="0.6"/>
			</g>
		</g>
		<g>
			<g>
				<rect x="32.9" y="22" class="st6" width="2.8" height="0.6"/>
			</g>
		</g>
		<g>
			<g>
				<g>
					<path d="M35.3,27.6H32v-6h3.2v1.3h-1.7v1h1.5v1.3h-1.5v1.2h1.8V27.6z M32.2,27.4h2.9v-0.9h-1.8V25h1.5v-0.9h-1.5v-1.4H35v-0.9
						h-2.8V27.4z"/>
				</g>
			</g>
		</g>
	</g>
	<g>
		<g>
			<g>
				<rect x="39.6" y="25.5" transform="matrix(0.2126 -0.9771 0.9771 0.2126 7.648 61.769)" class="st7" width="5.1" height="1.3"/>
			</g>
		</g>
		<g>
			<g>
				<path d="M42.4,27.7h-1.3v-4.8h-1v-1.3h3.4v1.3h-1.1V27.7z M41.3,27.5h0.9v-4.8h1.1v-0.9h-3.1l0,0.9h1V27.5z"/>
			</g>
		</g>
	</g>
</g>
</svg>
