<?xml version="1.0" encoding="utf-8"?>
<!-- Generator: Adobe Illustrator 16.0.0, SVG Export Plug-In . SVG Version: 6.00 Build 0)  -->
<!DOCTYPE svg PUBLIC "-//W3C//DTD SVG 1.1//EN" "http://www.w3.org/Graphics/SVG/1.1/DTD/svg11.dtd">
<svg version="1.1" id="Layer_1" xmlns="http://www.w3.org/2000/svg" xmlns:xlink="http://www.w3.org/1999/xlink" x="0px" y="0px"
	 width="416.979px" height="136.493px" viewBox="504.091 239.598 416.979 136.493"
	 enable-background="new 504.091 239.598 416.979 136.493" xml:space="preserve">
<g>
	<path d="M512.337,322.81v-49h29.05v0.98h-28.068v22.82h25.34v0.98h-25.34v23.24h29.049v0.98L512.337,322.81L512.337,322.81z"/>
	<path d="M568.966,322.81v-49h0.98v48.02h28.35v0.979H568.966z"/>
	<path d="M621.745,273.81h0.979v49h-0.979V273.81z"/>
	<path d="M653.456,322.81v-49h26.25v0.98h-25.271v23.52h22.54v0.98h-22.54v23.52H653.456z"/>
	<path d="M736.265,273.81h10.011c4.945,0,9.135,0.759,12.564,2.275c3.43,1.517,6.219,3.465,8.364,5.845
		c2.146,2.38,3.698,5.017,4.655,7.91c0.956,2.894,1.436,5.717,1.436,8.47c0,3.734-0.654,7.117-1.96,10.15
		c-1.308,3.034-3.08,5.612-5.32,7.735c-2.239,2.125-4.854,3.757-7.84,4.899c-2.987,1.145-6.16,1.715-9.521,1.715h-12.391
		L736.265,273.81L736.265,273.81z M749.074,321.83c3.126,0,6.102-0.548,8.926-1.646c2.822-1.096,5.308-2.659,7.454-4.689
		c2.146-2.03,3.839-4.503,5.075-7.42c1.235-2.916,1.854-6.171,1.854-9.765c0-2.66-0.455-5.366-1.364-8.12
		c-0.91-2.753-2.381-5.273-4.41-7.56c-2.03-2.286-4.667-4.153-7.91-5.6c-3.244-1.446-7.175-2.17-11.795-2.17h-9.66v46.97H749.074z"
		/>
	<path d="M831.886,322.81c-3.313-7.886-6.417-15.761-9.311-23.625c-2.895-7.863-5.997-15.738-9.311-23.625
		c-0.095-0.28-0.198-0.571-0.314-0.875c-0.117-0.303-0.222-0.595-0.314-0.875c-0.095,0.28-0.198,0.572-0.314,0.875
		c-0.117,0.304-0.223,0.595-0.315,0.875c-3.312,7.887-6.417,15.762-9.31,23.625c-2.895,7.864-5.997,15.739-9.311,23.625h-1.051
		c3.594-8.54,6.978-17.08,10.15-25.62s6.556-17.08,10.149-25.62c3.594,8.54,6.977,17.08,10.149,25.62s6.556,17.08,10.149,25.62
		H831.886z M801.855,300.55h21.63v-0.98h-21.63V300.55z"/>
	<path d="M866.256,304.47v18.34h-0.979v-18.34c-3.08-5.133-6.148-10.243-9.205-15.33c-3.058-5.086-6.125-10.196-9.205-15.33h1.189
		c2.8,4.714,5.623,9.392,8.47,14.035c2.847,4.644,5.646,9.345,8.4,14.105l0.91,1.82c0.14-0.326,0.268-0.63,0.385-0.91
		c0.116-0.28,0.245-0.583,0.385-0.91l16.801-28.14h1.189L866.256,304.47z"/>
	<path d="M908.956,273.81h0.979v49h-0.979V273.81z"/>
</g>
<g>
	<path d="M512.438,352.7v-18.533h9.93v0.371h-9.559v8.896h8.525v0.371h-8.525v8.896L512.438,352.7L512.438,352.7z"/>
	<path d="M533.99,342.957c-0.583,0.018-1.134,0.128-1.655,0.331c-0.521,0.203-0.979,0.477-1.376,0.821
		c-0.396,0.344-0.711,0.754-0.94,1.23c-0.229,0.478-0.344,0.989-0.344,1.536v5.825h-0.371v-9.928h0.267l0.024,2.595
		c0.371-0.847,0.945-1.513,1.723-1.999c0.775-0.485,1.668-0.746,2.674-0.781L533.99,342.957L533.99,342.957z"/>
	<path d="M548.604,351.482c-0.459,0.423-0.992,0.759-1.602,1.006s-1.258,0.371-1.946,0.371c-0.724,0-1.395-0.133-2.013-0.397
		c-0.617-0.265-1.16-0.631-1.628-1.099c-0.468-0.469-0.833-1.01-1.099-1.628s-0.396-1.288-0.396-2.013
		c0-0.706,0.132-1.376,0.396-2.012c0.266-0.636,0.631-1.187,1.099-1.655c0.468-0.468,1.011-0.838,1.628-1.111
		c0.618-0.273,1.289-0.41,2.013-0.41c1.096,0,2.018,0.312,2.768,0.939c0.75,0.628,1.318,1.417,1.707,2.37
		c-0.67,0.266-1.386,0.553-2.146,0.86c-0.758,0.309-1.525,0.622-2.303,0.94c-0.777,0.316-1.549,0.631-2.316,0.939
		c-0.767,0.309-1.486,0.604-2.157,0.887c0.354,0.9,0.927,1.628,1.721,2.185c0.795,0.556,1.703,0.834,2.728,0.834
		c0.637,0,1.231-0.11,1.787-0.331c0.557-0.221,1.046-0.533,1.471-0.939L548.604,351.482z M549.028,345.658
		c-0.371-0.794-0.888-1.447-1.55-1.959c-0.661-0.512-1.47-0.769-2.423-0.769c-0.671,0-1.293,0.124-1.865,0.371
		c-0.574,0.248-1.077,0.592-1.511,1.033c-0.432,0.441-0.771,0.953-1.02,1.536c-0.246,0.583-0.37,1.2-0.37,1.853
		c0,0.513,0.062,0.98,0.186,1.403c0.653-0.265,1.342-0.547,2.065-0.847c0.723-0.3,1.455-0.597,2.197-0.888
		c0.739-0.292,1.478-0.587,2.211-0.887C547.682,346.205,548.374,345.922,549.028,345.658z"/>
	<path d="M565.495,351.482c-0.459,0.423-0.992,0.759-1.603,1.006c-0.609,0.247-1.258,0.371-1.944,0.371
		c-0.726,0-1.396-0.133-2.014-0.397c-0.617-0.265-1.16-0.631-1.628-1.099c-0.469-0.469-0.834-1.01-1.1-1.628
		c-0.264-0.618-0.396-1.288-0.396-2.013c0-0.706,0.134-1.376,0.396-2.012c0.266-0.636,0.631-1.187,1.1-1.655
		c0.468-0.468,1.011-0.838,1.628-1.111c0.618-0.273,1.288-0.41,2.014-0.41c1.094,0,2.016,0.312,2.766,0.939
		c0.75,0.628,1.32,1.417,1.708,2.37c-0.671,0.266-1.386,0.553-2.145,0.86c-0.76,0.309-1.526,0.622-2.305,0.94
		c-0.775,0.316-1.549,0.631-2.315,0.939c-0.768,0.309-1.486,0.604-2.157,0.887c0.354,0.9,0.927,1.628,1.721,2.185
		c0.794,0.556,1.703,0.834,2.729,0.834c0.635,0,1.229-0.11,1.787-0.331c0.556-0.221,1.045-0.533,1.469-0.939L565.495,351.482z
		 M565.919,345.658c-0.371-0.794-0.887-1.447-1.549-1.959s-1.469-0.769-2.422-0.769c-0.672,0-1.293,0.124-1.867,0.371
		c-0.574,0.248-1.076,0.592-1.509,1.033c-0.434,0.441-0.772,0.953-1.021,1.536s-0.37,1.2-0.37,1.853c0,0.513,0.062,0.98,0.187,1.403
		c0.651-0.265,1.34-0.547,2.063-0.847c0.725-0.3,1.456-0.597,2.197-0.888c0.741-0.292,1.479-0.587,2.211-0.887
		C564.573,346.205,565.266,345.922,565.919,345.658z"/>
	<path d="M575,352.7h-0.37v-19.856H575V352.7z"/>
	<path d="M583.631,347.723c0-0.706,0.132-1.376,0.397-2.012c0.265-0.636,0.631-1.183,1.098-1.642c0.469-0.459,1.011-0.825,1.629-1.1
		c0.617-0.272,1.288-0.411,2.012-0.411c1.096,0,2.07,0.306,2.927,0.914c0.855,0.609,1.479,1.391,1.867,2.344
		c0-0.513,0.008-1.02,0.024-1.522c0.019-0.503,0.045-1.01,0.08-1.522h0.265v9.929h-0.369v-1.431c0-0.281,0.004-0.56,0.013-0.834
		c0.009-0.272,0.013-0.551,0.013-0.834c-0.192,0.478-0.449,0.914-0.768,1.312c-0.317,0.396-0.685,0.741-1.099,1.033
		c-0.416,0.291-0.875,0.516-1.377,0.675c-0.504,0.159-1.028,0.238-1.575,0.238c-0.725,0-1.396-0.133-2.013-0.397
		c-0.618-0.265-1.16-0.631-1.629-1.099c-0.467-0.469-0.833-1.011-1.098-1.628C583.763,349.117,583.631,348.447,583.631,347.723z
		 M584.001,347.723c0,0.671,0.124,1.293,0.371,1.867s0.587,1.077,1.02,1.509c0.433,0.434,0.937,0.772,1.51,1.02
		c0.572,0.248,1.195,0.371,1.865,0.371c0.653,0,1.271-0.123,1.854-0.371c0.582-0.247,1.094-0.586,1.535-1.02
		c0.44-0.433,0.785-0.936,1.033-1.509c0.246-0.573,0.37-1.195,0.37-1.867c0-0.652-0.124-1.271-0.37-1.853
		c-0.248-0.583-0.593-1.094-1.033-1.536c-0.441-0.441-0.953-0.785-1.535-1.033c-0.582-0.247-1.2-0.371-1.854-0.371
		c-0.67,0-1.293,0.124-1.865,0.371c-0.573,0.248-1.077,0.592-1.51,1.033s-0.771,0.953-1.02,1.536S584.001,347.07,584.001,347.723z"
		/>
	<path d="M603.275,342.771h0.265l0.026,2.596c0.353-0.83,0.917-1.5,1.693-2.012c0.777-0.513,1.668-0.769,2.674-0.769
		c0.937,0,1.673,0.274,2.211,0.821c0.539,0.547,0.825,1.262,0.861,2.145v7.148h-0.371v-7.333c-0.035-0.636-0.27-1.188-0.701-1.655
		c-0.434-0.468-1.036-0.719-1.813-0.755c-0.6,0-1.17,0.098-1.707,0.292c-0.539,0.194-1.016,0.463-1.43,0.808
		c-0.416,0.345-0.742,0.76-0.98,1.244c-0.237,0.486-0.356,1.011-0.356,1.575v5.825h-0.37L603.275,342.771L603.275,342.771z"/>
	<path d="M627.554,351.456l0.265,0.265c-0.459,0.354-0.961,0.631-1.509,0.834s-1.131,0.305-1.747,0.305
		c-0.726,0-1.396-0.133-2.013-0.397c-0.619-0.265-1.161-0.631-1.629-1.099c-0.468-0.469-0.834-1.01-1.099-1.628
		c-0.266-0.618-0.397-1.288-0.397-2.013c0-0.706,0.133-1.376,0.397-2.012s0.631-1.183,1.099-1.642s1.01-0.825,1.629-1.1
		c0.617-0.272,1.287-0.411,2.013-0.411c0.616,0,1.204,0.103,1.761,0.306c0.556,0.203,1.054,0.48,1.495,0.834
		c-0.035,0.053-0.078,0.102-0.133,0.146c-0.053,0.044-0.097,0.094-0.132,0.146c-0.405-0.335-0.864-0.596-1.377-0.781
		c-0.512-0.186-1.051-0.278-1.615-0.278c-0.671,0-1.293,0.124-1.866,0.371c-0.573,0.248-1.076,0.593-1.509,1.033
		c-0.434,0.441-0.772,0.953-1.02,1.536c-0.248,0.583-0.371,1.2-0.371,1.853c0,0.671,0.123,1.293,0.371,1.867
		c0.246,0.574,0.586,1.077,1.02,1.509c0.433,0.434,0.936,0.772,1.509,1.02c0.573,0.248,1.195,0.371,1.866,0.371
		c0.564,0,1.104-0.093,1.615-0.278C626.688,352.025,627.146,351.773,627.554,351.456z"/>
	<path d="M643.757,351.482c-0.46,0.423-0.994,0.759-1.603,1.006c-0.609,0.247-1.258,0.371-1.946,0.371
		c-0.724,0-1.396-0.133-2.012-0.397c-0.618-0.265-1.16-0.631-1.629-1.099c-0.468-0.469-0.833-1.01-1.099-1.628
		s-0.396-1.288-0.396-2.013c0-0.706,0.132-1.376,0.396-2.012c0.266-0.636,0.631-1.187,1.099-1.655
		c0.469-0.468,1.011-0.838,1.629-1.111c0.616-0.273,1.288-0.41,2.012-0.41c1.095,0,2.017,0.312,2.768,0.939
		c0.75,0.626,1.318,1.417,1.707,2.37c-0.671,0.266-1.386,0.553-2.145,0.86c-0.759,0.309-1.527,0.622-2.303,0.94
		c-0.777,0.316-1.55,0.631-2.316,0.939c-0.769,0.309-1.488,0.604-2.158,0.887c0.354,0.9,0.927,1.628,1.722,2.185
		c0.795,0.556,1.702,0.834,2.727,0.834c0.636,0,1.231-0.11,1.787-0.331c0.557-0.221,1.047-0.533,1.47-0.939L643.757,351.482z
		 M644.18,345.658c-0.37-0.794-0.887-1.447-1.549-1.959c-0.661-0.512-1.47-0.769-2.423-0.769c-0.67,0-1.293,0.124-1.866,0.371
		c-0.573,0.248-1.077,0.592-1.509,1.033c-0.433,0.441-0.772,0.953-1.021,1.536s-0.37,1.2-0.37,1.853c0,0.513,0.062,0.98,0.186,1.403
		c0.653-0.265,1.342-0.547,2.065-0.847s1.456-0.597,2.196-0.888c0.741-0.292,1.479-0.587,2.211-0.887
		C642.833,346.205,643.526,345.922,644.18,345.658z"/>
	<path d="M678.915,344.758v6.831c-0.705,0.406-1.461,0.729-2.264,0.966c-0.804,0.238-1.654,0.357-2.556,0.357
		c-1.43,0-2.727-0.247-3.892-0.741s-2.157-1.169-2.979-2.024c-0.821-0.856-1.456-1.857-1.905-3.006
		c-0.45-1.146-0.676-2.374-0.676-3.68s0.246-2.537,0.741-3.693c0.493-1.155,1.169-2.161,2.025-3.018
		c0.855-0.856,1.856-1.536,3.005-2.039c1.146-0.503,2.373-0.754,3.68-0.754c0.9,0,1.752,0.115,2.556,0.344
		c0.803,0.229,1.565,0.557,2.291,0.979l-0.213,0.317c-0.671-0.405-1.398-0.719-2.185-0.939s-1.602-0.331-2.449-0.331
		c-1.253,0-2.432,0.243-3.534,0.728c-1.103,0.486-2.064,1.144-2.886,1.974c-0.82,0.83-1.469,1.8-1.944,2.911
		c-0.478,1.112-0.716,2.296-0.716,3.549s0.211,2.427,0.636,3.521c0.424,1.095,1.026,2.052,1.812,2.873
		c0.785,0.821,1.729,1.47,2.833,1.946s2.343,0.715,3.72,0.715c0.829,0,1.624-0.102,2.384-0.305c0.759-0.203,1.474-0.499,2.145-0.888
		v-6.222h-4.554v-0.371H678.915L678.915,344.758z"/>
	<path d="M692.365,342.957c-0.583,0.018-1.134,0.128-1.655,0.331c-0.521,0.203-0.979,0.477-1.376,0.821
		c-0.396,0.344-0.711,0.754-0.94,1.23c-0.229,0.478-0.344,0.989-0.344,1.536v5.825h-0.371v-9.928h0.267l0.024,2.595
		c0.371-0.847,0.945-1.513,1.723-1.999c0.775-0.485,1.668-0.746,2.674-0.781L692.365,342.957L692.365,342.957z"/>
	<path d="M698.296,347.723c0-0.706,0.132-1.376,0.396-2.012c0.266-0.636,0.631-1.183,1.099-1.642s1.011-0.825,1.628-1.1
		c0.618-0.272,1.289-0.411,2.013-0.411c1.096,0,2.069,0.306,2.926,0.914c0.855,0.609,1.479,1.391,1.866,2.344
		c0-0.513,0.01-1.02,0.026-1.522c0.018-0.503,0.044-1.01,0.079-1.522h0.266v9.929h-0.371v-1.431c0-0.281,0.005-0.56,0.015-0.834
		c0.008-0.272,0.013-0.551,0.013-0.834c-0.194,0.478-0.45,0.914-0.768,1.312c-0.318,0.396-0.686,0.741-1.1,1.033
		c-0.415,0.291-0.874,0.516-1.377,0.675s-1.028,0.238-1.575,0.238c-0.724,0-1.395-0.133-2.013-0.397
		c-0.617-0.265-1.16-0.631-1.628-1.099c-0.468-0.469-0.833-1.011-1.099-1.628C698.428,349.117,698.296,348.447,698.296,347.723z
		 M698.666,347.723c0,0.671,0.124,1.293,0.37,1.867c0.248,0.574,0.588,1.077,1.02,1.509c0.434,0.434,0.937,0.772,1.511,1.02
		c0.572,0.248,1.194,0.371,1.865,0.371c0.653,0,1.271-0.123,1.854-0.371c0.583-0.247,1.095-0.586,1.536-1.02
		c0.439-0.433,0.785-0.936,1.032-1.509c0.248-0.573,0.37-1.195,0.37-1.867c0-0.652-0.122-1.271-0.37-1.853
		c-0.247-0.583-0.593-1.094-1.032-1.536c-0.441-0.441-0.953-0.785-1.536-1.033c-0.582-0.247-1.199-0.371-1.854-0.371
		c-0.671,0-1.293,0.124-1.865,0.371c-0.574,0.248-1.077,0.592-1.511,1.033c-0.432,0.441-0.771,0.953-1.02,1.536
		C698.79,346.452,698.666,347.07,698.666,347.723z"/>
	<path d="M728.239,347.723c0,0.725-0.134,1.396-0.397,2.013c-0.265,0.618-0.632,1.161-1.099,1.628
		c-0.468,0.468-1.017,0.834-1.642,1.099c-0.628,0.265-1.294,0.397-2,0.397c-0.547,0-1.071-0.079-1.574-0.238
		c-0.504-0.159-0.963-0.384-1.377-0.675c-0.415-0.292-0.785-0.637-1.111-1.033c-0.327-0.397-0.579-0.834-0.755-1.312
		c0,0.283,0.004,0.562,0.013,0.834c0.009,0.274,0.014,0.553,0.014,0.834v6.195h-0.371v-14.693h0.371v3.044
		c0.389-0.953,1.011-1.734,1.866-2.344c0.856-0.608,1.831-0.914,2.927-0.914c0.705,0,1.371,0.138,1.998,0.411s1.175,0.641,1.643,1.1
		c0.467,0.459,0.834,1.006,1.099,1.642C728.105,346.346,728.239,347.017,728.239,347.723z M727.868,347.723
		c0-0.652-0.124-1.271-0.371-1.853s-0.587-1.094-1.019-1.536c-0.434-0.441-0.94-0.785-1.522-1.033
		c-0.583-0.247-1.201-0.371-1.854-0.371c-0.671,0-1.293,0.124-1.865,0.371c-0.574,0.248-1.082,0.592-1.522,1.033
		s-0.786,0.953-1.032,1.536c-0.248,0.583-0.371,1.2-0.371,1.853c0,0.671,0.123,1.293,0.371,1.867
		c0.246,0.574,0.592,1.077,1.032,1.509c0.44,0.434,0.948,0.772,1.522,1.02c0.572,0.248,1.194,0.371,1.865,0.371
		c0.652,0,1.271-0.123,1.854-0.371c0.582-0.247,1.09-0.586,1.522-1.02c0.432-0.433,0.771-0.936,1.019-1.509
		C727.744,349.016,727.868,348.395,727.868,347.723z"/>
	<path d="M736.764,332.844h0.371v12.364c0.317-0.741,0.86-1.363,1.628-1.866c0.769-0.503,1.655-0.755,2.661-0.755
		c0.936,0,1.672,0.274,2.211,0.821c0.538,0.547,0.824,1.262,0.86,2.145v7.148h-0.371v-7.333c-0.035-0.636-0.271-1.188-0.701-1.655
		c-0.433-0.468-1.037-0.719-1.812-0.755c-0.602,0-1.171,0.098-1.708,0.292c-0.538,0.194-1.016,0.463-1.431,0.808
		c-0.415,0.346-0.741,0.76-0.979,1.244c-0.238,0.486-0.357,1.011-0.357,1.575v5.825h-0.371L736.764,332.844L736.764,332.844z"/>
	<path d="M753.39,339.462c0-0.141,0.054-0.265,0.159-0.371c0.105-0.105,0.229-0.159,0.37-0.159c0.142,0,0.265,0.054,0.371,0.159
		c0.104,0.106,0.158,0.229,0.158,0.371s-0.054,0.265-0.158,0.371c-0.106,0.106-0.229,0.159-0.371,0.159s-0.265-0.053-0.37-0.159
		C753.442,339.727,753.39,339.604,753.39,339.462z M754.104,352.7h-0.37v-9.929h0.37V352.7z"/>
	<path d="M770.757,351.456l0.265,0.265c-0.459,0.354-0.961,0.631-1.509,0.834s-1.13,0.305-1.747,0.305
		c-0.725,0-1.395-0.133-2.013-0.397s-1.161-0.631-1.628-1.099c-0.468-0.469-0.834-1.01-1.099-1.628
		c-0.266-0.618-0.397-1.288-0.397-2.013c0-0.706,0.133-1.376,0.397-2.012s0.631-1.183,1.099-1.642c0.467-0.459,1.01-0.825,1.628-1.1
		c0.618-0.273,1.288-0.411,2.013-0.411c0.617,0,1.204,0.103,1.761,0.306s1.055,0.48,1.495,0.834
		c-0.034,0.053-0.078,0.102-0.132,0.146s-0.098,0.094-0.133,0.146c-0.405-0.335-0.864-0.596-1.377-0.781
		c-0.512-0.186-1.05-0.278-1.615-0.278c-0.671,0-1.293,0.124-1.866,0.371c-0.572,0.248-1.075,0.593-1.509,1.033
		c-0.433,0.441-0.771,0.953-1.02,1.536s-0.37,1.2-0.37,1.853c0,0.671,0.123,1.293,0.37,1.867s0.587,1.077,1.02,1.509
		c0.434,0.433,0.937,0.772,1.509,1.02c0.573,0.248,1.195,0.371,1.866,0.371c0.565,0,1.104-0.093,1.615-0.278
		C769.893,352.025,770.352,351.773,770.757,351.456z"/>
	<path d="M792.837,334.167h3.786c1.871,0,3.455,0.287,4.752,0.86c1.298,0.573,2.354,1.311,3.164,2.211
		c0.812,0.899,1.398,1.896,1.761,2.992c0.361,1.094,0.543,2.161,0.543,3.202c0,1.413-0.248,2.692-0.741,3.839
		c-0.494,1.147-1.164,2.123-2.013,2.926c-0.847,0.803-1.836,1.421-2.965,1.854c-1.13,0.434-2.33,0.648-3.601,0.648h-4.688
		L792.837,334.167L792.837,334.167z M797.682,352.33c1.184,0,2.309-0.208,3.376-0.622c1.067-0.415,2.009-1.006,2.819-1.774
		c0.812-0.768,1.452-1.703,1.92-2.807c0.468-1.103,0.701-2.334,0.701-3.693c0-1.006-0.172-2.028-0.516-3.07
		c-0.346-1.042-0.9-1.995-1.668-2.859c-0.77-0.865-1.767-1.571-2.992-2.118c-1.228-0.547-2.715-0.821-4.461-0.821h-3.653v17.766
		H797.682z"/>
	<path d="M822.966,351.482c-0.459,0.423-0.992,0.759-1.602,1.006c-0.608,0.247-1.259,0.371-1.946,0.371
		c-0.724,0-1.394-0.133-2.012-0.397s-1.161-0.631-1.628-1.099c-0.468-0.469-0.834-1.01-1.1-1.628
		c-0.265-0.618-0.396-1.288-0.396-2.013c0-0.706,0.133-1.376,0.396-2.012c0.266-0.636,0.632-1.187,1.1-1.655
		c0.467-0.468,1.01-0.838,1.628-1.111c0.617-0.273,1.288-0.41,2.012-0.41c1.095,0,2.018,0.312,2.768,0.939
		c0.75,0.626,1.318,1.417,1.707,2.37c-0.671,0.266-1.386,0.553-2.145,0.86c-0.759,0.309-1.526,0.622-2.303,0.94
		c-0.777,0.316-1.549,0.631-2.317,0.939c-0.768,0.309-1.486,0.604-2.157,0.887c0.354,0.9,0.928,1.628,1.722,2.185
		c0.794,0.556,1.702,0.834,2.727,0.834c0.636,0,1.231-0.11,1.787-0.331c0.557-0.221,1.046-0.533,1.47-0.939L822.966,351.482z
		 M823.39,345.658c-0.37-0.794-0.887-1.447-1.549-1.959s-1.47-0.769-2.423-0.769c-0.671,0-1.293,0.124-1.866,0.371
		c-0.573,0.248-1.075,0.592-1.509,1.033c-0.433,0.441-0.771,0.953-1.02,1.536s-0.37,1.2-0.37,1.853c0,0.513,0.062,0.98,0.185,1.403
		c0.653-0.265,1.342-0.547,2.065-0.847s1.456-0.597,2.196-0.888c0.741-0.292,1.479-0.587,2.211-0.887
		C822.044,346.205,822.736,345.922,823.39,345.658z"/>
	<path d="M836.76,343.805l-0.265,0.266c-0.3-0.354-0.685-0.613-1.151-0.781c-0.468-0.167-0.878-0.251-1.23-0.251
		c-0.229,0-0.478,0.04-0.741,0.119c-0.265,0.079-0.513,0.198-0.741,0.356s-0.419,0.371-0.568,0.636
		c-0.15,0.265-0.226,0.583-0.226,0.952c0,0.495,0.132,0.884,0.396,1.165c0.267,0.283,0.593,0.517,0.98,0.702
		c0.388,0.187,0.815,0.35,1.283,0.49c0.468,0.142,0.896,0.312,1.284,0.516s0.715,0.463,0.979,0.781
		c0.265,0.318,0.397,0.75,0.397,1.297c0,0.371-0.066,0.729-0.198,1.072c-0.133,0.344-0.327,0.648-0.583,0.913
		s-0.573,0.477-0.953,0.636s-0.816,0.238-1.311,0.238c-0.478,0-1.006-0.093-1.588-0.278c-0.584-0.185-1.061-0.507-1.431-0.966
		c0.054-0.035,0.102-0.075,0.146-0.119c0.044-0.043,0.093-0.083,0.146-0.119c0.105,0.159,0.273,0.31,0.503,0.45
		c0.229,0.142,0.478,0.261,0.741,0.357c0.266,0.097,0.529,0.172,0.794,0.225c0.267,0.053,0.504,0.08,0.715,0.08
		c0.212,0,0.474-0.04,0.781-0.119c0.31-0.08,0.601-0.212,0.874-0.396c0.273-0.186,0.507-0.429,0.701-0.729
		c0.193-0.3,0.291-0.679,0.291-1.138c0-0.53-0.132-0.944-0.396-1.245c-0.265-0.3-0.592-0.542-0.979-0.728
		c-0.389-0.186-0.816-0.349-1.284-0.49s-0.896-0.31-1.284-0.503c-0.389-0.194-0.715-0.45-0.979-0.769
		c-0.266-0.316-0.397-0.75-0.397-1.297c0-0.424,0.075-0.79,0.227-1.099c0.148-0.31,0.353-0.564,0.607-0.769
		c0.256-0.203,0.543-0.353,0.86-0.449c0.318-0.098,0.636-0.146,0.953-0.146c0.389,0,0.834,0.084,1.337,0.251
		C835.952,343.085,836.39,343.381,836.76,343.805z"/>
	<path d="M845.338,339.462c0-0.141,0.053-0.265,0.159-0.371c0.104-0.105,0.229-0.159,0.37-0.159s0.265,0.054,0.371,0.159
		c0.104,0.106,0.158,0.229,0.158,0.371s-0.054,0.265-0.158,0.371c-0.106,0.106-0.229,0.159-0.371,0.159
		c-0.143,0-0.266-0.053-0.37-0.159C845.391,339.727,845.338,339.604,845.338,339.462z M846.053,352.7h-0.371v-9.929h0.371V352.7z"/>
	<path d="M854.577,347.723c0-0.706,0.133-1.376,0.396-2.012c0.266-0.636,0.632-1.183,1.1-1.642c0.467-0.459,1.01-0.825,1.628-1.1
		c0.618-0.273,1.288-0.411,2.012-0.411c1.095,0,2.069,0.306,2.926,0.914c0.857,0.609,1.479,1.391,1.867,2.344
		c0-0.513,0.008-1.02,0.026-1.522c0.017-0.503,0.044-1.01,0.079-1.522h0.265v10.141c0,0.563-0.075,1.121-0.225,1.668
		c-0.15,0.547-0.42,1.032-0.809,1.456c-0.389,0.423-0.914,0.768-1.575,1.033c-0.661,0.265-1.505,0.396-2.527,0.396
		c-0.318,0-0.641-0.021-0.967-0.065c-0.327-0.045-0.676-0.142-1.047-0.291c-0.369-0.15-0.759-0.357-1.164-0.622
		c-0.406-0.266-0.829-0.618-1.271-1.06l0.238-0.265c0.44,0.423,0.854,0.763,1.244,1.019c0.389,0.256,0.755,0.45,1.099,0.583
		c0.345,0.132,0.671,0.222,0.979,0.266c0.308,0.044,0.596,0.065,0.859,0.065c0.936,0,1.708-0.114,2.317-0.344
		c0.607-0.229,1.089-0.547,1.441-0.953c0.354-0.406,0.604-0.887,0.755-1.442c0.149-0.557,0.233-1.161,0.252-1.813
		c0-0.088,0-0.154,0-0.199c0-0.044,0-0.105,0-0.186c0-0.079,0.005-0.186,0.014-0.317s0.014-0.321,0.014-0.568
		c0-0.019,0-0.11,0-0.278c0-0.167,0.004-0.35,0.014-0.543c0.009-0.194,0.014-0.375,0.014-0.542s0-0.27,0-0.306
		c-0.194,0.478-0.45,0.914-0.77,1.312c-0.316,0.397-0.684,0.741-1.099,1.033c-0.415,0.291-0.873,0.516-1.376,0.675
		c-0.504,0.159-1.029,0.238-1.576,0.238c-0.724,0-1.394-0.133-2.012-0.397s-1.161-0.631-1.628-1.099
		c-0.468-0.468-0.834-1.01-1.1-1.628C854.71,349.117,854.577,348.447,854.577,347.723z M854.948,347.723
		c0,0.671,0.123,1.293,0.37,1.867c0.246,0.574,0.587,1.077,1.02,1.509c0.434,0.433,0.936,0.772,1.509,1.02
		c0.573,0.248,1.195,0.371,1.866,0.371c0.653,0,1.271-0.123,1.854-0.371c0.583-0.247,1.095-0.586,1.536-1.02
		c0.439-0.433,0.784-0.936,1.031-1.509s0.371-1.195,0.371-1.867c0-0.652-0.124-1.271-0.371-1.853s-0.592-1.094-1.031-1.536
		c-0.441-0.441-0.953-0.785-1.536-1.033c-0.582-0.247-1.2-0.371-1.854-0.371c-0.671,0-1.293,0.124-1.866,0.371
		c-0.573,0.248-1.075,0.592-1.509,1.033c-0.433,0.441-0.771,0.953-1.02,1.536S854.948,347.07,854.948,347.723z"/>
	<path d="M874.222,342.771h0.267l0.025,2.596c0.354-0.83,0.917-1.5,1.694-2.012c0.776-0.513,1.668-0.769,2.674-0.769
		c0.937,0,1.672,0.274,2.211,0.821c0.538,0.547,0.824,1.262,0.86,2.145v7.148h-0.371v-7.333c-0.035-0.636-0.27-1.188-0.701-1.655
		c-0.433-0.468-1.037-0.719-1.812-0.755c-0.602,0-1.17,0.098-1.708,0.292s-1.016,0.463-1.431,0.808
		c-0.415,0.346-0.74,0.76-0.979,1.244c-0.238,0.486-0.357,1.011-0.357,1.575v5.825h-0.371L874.222,342.771L874.222,342.771z"/>
	<path d="M899.055,351.482c-0.459,0.423-0.992,0.759-1.602,1.006c-0.608,0.247-1.258,0.371-1.946,0.371
		c-0.724,0-1.394-0.133-2.012-0.397s-1.161-0.631-1.628-1.099c-0.469-0.469-0.834-1.01-1.1-1.628
		c-0.265-0.618-0.396-1.288-0.396-2.013c0-0.706,0.133-1.376,0.396-2.012c0.266-0.636,0.631-1.187,1.1-1.655
		c0.467-0.468,1.01-0.838,1.628-1.111s1.288-0.41,2.012-0.41c1.095,0,2.018,0.312,2.769,0.939c0.75,0.626,1.317,1.417,1.707,2.37
		c-0.672,0.266-1.387,0.553-2.146,0.86c-0.759,0.309-1.526,0.622-2.303,0.94c-0.777,0.316-1.549,0.631-2.317,0.939
		c-0.768,0.309-1.486,0.604-2.156,0.887c0.353,0.9,0.927,1.628,1.721,2.185c0.794,0.556,1.703,0.834,2.727,0.834
		c0.637,0,1.231-0.11,1.787-0.331c0.557-0.221,1.046-0.533,1.47-0.939L899.055,351.482z M899.479,345.658
		c-0.369-0.794-0.887-1.447-1.549-1.959s-1.47-0.769-2.423-0.769c-0.671,0-1.293,0.124-1.866,0.371
		c-0.572,0.248-1.076,0.592-1.509,1.033s-0.771,0.953-1.02,1.536s-0.37,1.2-0.37,1.853c0,0.513,0.062,0.98,0.185,1.403
		c0.653-0.265,1.343-0.547,2.065-0.847c0.724-0.3,1.456-0.597,2.197-0.888c0.74-0.292,1.479-0.587,2.211-0.887
		C898.133,346.205,898.825,345.922,899.479,345.658z"/>
	<path d="M912.77,342.957c-0.582,0.018-1.135,0.128-1.653,0.331c-0.521,0.203-0.979,0.477-1.377,0.821
		c-0.398,0.344-0.711,0.754-0.94,1.23c-0.229,0.478-0.344,0.989-0.344,1.536v5.825h-0.371v-9.928h0.266l0.026,2.595
		c0.37-0.847,0.943-1.513,1.721-1.999c0.776-0.485,1.669-0.746,2.675-0.781v0.369H912.77z"/>
</g>
</svg>
