<?xml version="1.0" encoding="utf-8"?>
<!-- Generator: Adobe Illustrator 16.0.0, SVG Export Plug-In . SVG Version: 6.00 Build 0)  -->
<!DOCTYPE svg PUBLIC "-//W3C//DTD SVG 1.1//EN" "http://www.w3.org/Graphics/SVG/1.1/DTD/svg11.dtd">
<svg version="1.1" id="Layer_1" xmlns="http://www.w3.org/2000/svg" xmlns:xlink="http://www.w3.org/1999/xlink" x="0px" y="0px"
	 width="178.418px" height="87.312px" viewBox="165.767 277.587 178.418 87.312"
	 enable-background="new 165.767 277.587 178.418 87.312" xml:space="preserve">
<g>
	<g>
		<path d="M171.121,304.899v-18.533h9.931v0.371h-9.56v8.896h8.525v0.371h-8.525v8.896L171.121,304.899L171.121,304.899z"/>
		<path d="M192.674,295.157c-0.583,0.018-1.134,0.127-1.655,0.33c-0.521,0.203-0.979,0.477-1.376,0.822
			c-0.396,0.344-0.711,0.754-0.94,1.229c-0.229,0.479-0.344,0.99-0.344,1.537v5.824h-0.371v-9.928h0.268l0.023,2.596
			c0.371-0.848,0.945-1.514,1.724-2c0.774-0.484,1.668-0.746,2.674-0.781L192.674,295.157L192.674,295.157z"/>
		<path d="M207.287,303.682c-0.459,0.422-0.991,0.758-1.602,1.006c-0.61,0.246-1.258,0.371-1.946,0.371
			c-0.724,0-1.395-0.135-2.013-0.398c-0.617-0.264-1.16-0.631-1.628-1.098c-0.468-0.469-0.833-1.01-1.099-1.629
			c-0.267-0.617-0.396-1.287-0.396-2.014c0-0.705,0.132-1.375,0.396-2.012c0.266-0.635,0.631-1.186,1.099-1.654
			s1.011-0.838,1.628-1.111c0.618-0.273,1.289-0.41,2.013-0.41c1.097,0,2.019,0.312,2.769,0.939s1.317,1.416,1.707,2.369
			c-0.67,0.268-1.387,0.555-2.146,0.861c-0.758,0.309-1.524,0.621-2.303,0.939c-0.777,0.316-1.549,0.631-2.316,0.939
			c-0.767,0.309-1.485,0.604-2.156,0.887c0.354,0.9,0.927,1.627,1.721,2.186c0.795,0.555,1.703,0.834,2.729,0.834
			c0.637,0,1.23-0.111,1.786-0.332c0.558-0.221,1.046-0.533,1.472-0.939L207.287,303.682z M207.712,297.858
			c-0.371-0.795-0.889-1.447-1.55-1.959s-1.471-0.77-2.424-0.77c-0.671,0-1.293,0.123-1.864,0.371
			c-0.574,0.248-1.077,0.592-1.512,1.033c-0.432,0.441-0.771,0.953-1.02,1.535c-0.246,0.584-0.37,1.201-0.37,1.854
			c0,0.514,0.062,0.98,0.186,1.402c0.653-0.264,1.343-0.547,2.065-0.846c0.723-0.301,1.455-0.598,2.197-0.889
			c0.739-0.293,1.478-0.588,2.211-0.887S207.058,298.122,207.712,297.858z"/>
		<path d="M224.179,303.682c-0.459,0.422-0.992,0.758-1.604,1.006c-0.608,0.246-1.258,0.371-1.943,0.371
			c-0.727,0-1.396-0.135-2.015-0.398c-0.616-0.264-1.159-0.631-1.628-1.098c-0.469-0.469-0.834-1.01-1.1-1.629
			c-0.264-0.617-0.396-1.287-0.396-2.014c0-0.705,0.134-1.375,0.396-2.012c0.266-0.635,0.631-1.186,1.1-1.654
			s1.012-0.838,1.628-1.111c0.618-0.273,1.288-0.41,2.015-0.41c1.094,0,2.016,0.312,2.766,0.939s1.32,1.416,1.708,2.369
			c-0.671,0.268-1.386,0.555-2.145,0.861c-0.761,0.309-1.526,0.621-2.306,0.939c-0.774,0.316-1.549,0.631-2.314,0.939
			c-0.769,0.309-1.486,0.604-2.157,0.887c0.354,0.9,0.927,1.627,1.721,2.186c0.794,0.555,1.703,0.834,2.729,0.834
			c0.635,0,1.229-0.111,1.787-0.332c0.556-0.221,1.045-0.533,1.469-0.939L224.179,303.682z M224.603,297.858
			c-0.371-0.795-0.887-1.447-1.549-1.959c-0.662-0.514-1.469-0.77-2.422-0.77c-0.672,0-1.293,0.123-1.867,0.371
			s-1.076,0.592-1.509,1.033c-0.435,0.441-0.772,0.953-1.021,1.535c-0.249,0.584-0.37,1.201-0.37,1.854
			c0,0.514,0.062,0.98,0.188,1.402c0.651-0.264,1.34-0.547,2.062-0.846c0.726-0.301,1.456-0.598,2.197-0.889
			c0.741-0.293,1.479-0.588,2.211-0.887C223.257,298.405,223.949,298.122,224.603,297.858z"/>
		<path d="M233.684,304.899h-0.37v-19.855h0.37V304.899z"/>
		<path d="M242.314,299.922c0-0.707,0.132-1.377,0.397-2.012c0.265-0.637,0.631-1.184,1.098-1.643
			c0.469-0.459,1.011-0.824,1.629-1.1c0.617-0.271,1.288-0.412,2.012-0.412c1.097,0,2.07,0.307,2.928,0.914
			c0.854,0.609,1.479,1.393,1.866,2.346c0-0.514,0.009-1.021,0.024-1.523c0.019-0.502,0.045-1.01,0.08-1.521h0.265v9.93h-0.369
			v-1.432c0-0.281,0.005-0.561,0.014-0.834c0.009-0.271,0.013-0.551,0.013-0.834c-0.192,0.479-0.449,0.914-0.768,1.312
			c-0.317,0.395-0.686,0.74-1.1,1.033c-0.416,0.291-0.875,0.516-1.377,0.674c-0.504,0.16-1.027,0.238-1.575,0.238
			c-0.725,0-1.396-0.133-2.013-0.396c-0.618-0.266-1.16-0.631-1.629-1.1c-0.467-0.469-0.833-1.012-1.098-1.627
			C242.446,301.317,242.314,300.647,242.314,299.922z M242.685,299.922c0,0.67,0.124,1.293,0.371,1.867s0.587,1.076,1.02,1.508
			c0.434,0.436,0.938,0.773,1.511,1.021c0.571,0.248,1.194,0.371,1.864,0.371c0.653,0,1.271-0.123,1.854-0.371
			c0.582-0.248,1.094-0.586,1.535-1.021c0.439-0.432,0.785-0.936,1.033-1.508c0.245-0.574,0.369-1.195,0.369-1.867
			c0-0.652-0.124-1.271-0.369-1.854c-0.248-0.582-0.594-1.094-1.033-1.535c-0.441-0.441-0.953-0.785-1.535-1.033
			s-1.2-0.371-1.854-0.371c-0.67,0-1.293,0.123-1.864,0.371c-0.573,0.248-1.077,0.592-1.511,1.033
			c-0.433,0.441-0.771,0.953-1.02,1.535C242.807,298.653,242.685,299.27,242.685,299.922z"/>
		<path d="M261.959,294.971h0.265l0.026,2.596c0.353-0.83,0.917-1.5,1.692-2.012c0.777-0.514,1.668-0.77,2.674-0.77
			c0.938,0,1.674,0.273,2.212,0.82s0.824,1.262,0.86,2.145v7.148h-0.371v-7.332c-0.034-0.637-0.27-1.189-0.7-1.656
			c-0.435-0.467-1.036-0.719-1.813-0.754c-0.6,0-1.17,0.098-1.707,0.291c-0.539,0.195-1.016,0.463-1.43,0.809
			c-0.416,0.346-0.742,0.76-0.98,1.244c-0.236,0.486-0.355,1.012-0.355,1.574v5.826h-0.37L261.959,294.971L261.959,294.971z"/>
		<path d="M286.237,303.655l0.266,0.266c-0.459,0.354-0.961,0.631-1.509,0.834c-0.549,0.203-1.132,0.305-1.747,0.305
			c-0.727,0-1.396-0.133-2.014-0.396c-0.619-0.266-1.161-0.631-1.629-1.1s-0.834-1.01-1.099-1.627
			c-0.267-0.619-0.397-1.289-0.397-2.014c0-0.707,0.133-1.377,0.397-2.012c0.264-0.637,0.631-1.184,1.099-1.643
			s1.01-0.824,1.629-1.1c0.617-0.271,1.287-0.412,2.014-0.412c0.615,0,1.203,0.104,1.761,0.307c0.556,0.203,1.054,0.48,1.495,0.834
			c-0.035,0.053-0.078,0.102-0.134,0.146c-0.053,0.043-0.097,0.094-0.132,0.146c-0.404-0.336-0.863-0.596-1.377-0.781
			c-0.512-0.186-1.051-0.279-1.614-0.279c-0.672,0-1.294,0.125-1.866,0.371c-0.573,0.248-1.076,0.594-1.509,1.033
			c-0.435,0.441-0.772,0.953-1.021,1.537c-0.248,0.582-0.371,1.199-0.371,1.852c0,0.672,0.123,1.293,0.371,1.867
			c0.246,0.574,0.586,1.078,1.021,1.51c0.433,0.434,0.936,0.771,1.509,1.02c0.572,0.248,1.194,0.371,1.866,0.371
			c0.563,0,1.104-0.092,1.614-0.277C285.371,304.225,285.83,303.973,286.237,303.655z"/>
		<path d="M302.44,303.682c-0.46,0.422-0.994,0.758-1.603,1.006c-0.609,0.246-1.258,0.371-1.946,0.371
			c-0.724,0-1.396-0.135-2.012-0.398c-0.618-0.264-1.16-0.631-1.629-1.098c-0.469-0.469-0.833-1.01-1.1-1.629
			c-0.266-0.617-0.396-1.287-0.396-2.014c0-0.705,0.132-1.375,0.396-2.012c0.267-0.635,0.631-1.186,1.1-1.654
			s1.011-0.838,1.629-1.111c0.616-0.273,1.288-0.41,2.012-0.41c1.095,0,2.017,0.312,2.768,0.939c0.75,0.625,1.318,1.416,1.707,2.369
			c-0.671,0.268-1.386,0.555-2.145,0.861c-0.759,0.309-1.527,0.621-2.303,0.939c-0.777,0.316-1.551,0.631-2.316,0.939
			c-0.769,0.309-1.488,0.604-2.158,0.887c0.354,0.9,0.927,1.627,1.723,2.186c0.795,0.555,1.701,0.834,2.727,0.834
			c0.636,0,1.231-0.111,1.787-0.332c0.557-0.221,1.047-0.533,1.47-0.939L302.44,303.682z M302.863,297.858
			c-0.37-0.795-0.887-1.447-1.549-1.959c-0.661-0.512-1.47-0.77-2.423-0.77c-0.67,0-1.293,0.123-1.866,0.371
			s-1.077,0.592-1.509,1.033c-0.433,0.441-0.772,0.953-1.021,1.535c-0.25,0.584-0.37,1.201-0.37,1.854
			c0,0.514,0.062,0.98,0.186,1.402c0.653-0.264,1.342-0.547,2.065-0.846c0.723-0.301,1.456-0.598,2.195-0.889
			c0.741-0.293,1.479-0.588,2.211-0.887C301.517,298.405,302.21,298.122,302.863,297.858z"/>
	</g>
	<g>
		<path d="M211.26,322.997v6.83c-0.705,0.406-1.461,0.73-2.264,0.967c-0.805,0.238-1.654,0.357-2.557,0.357
			c-1.43,0-2.727-0.248-3.892-0.742s-2.157-1.168-2.979-2.023c-0.82-0.855-1.456-1.857-1.904-3.006
			c-0.45-1.146-0.677-2.375-0.677-3.68c0-1.307,0.246-2.537,0.741-3.693c0.493-1.154,1.169-2.16,2.025-3.018
			c0.854-0.855,1.855-1.537,3.005-2.039c1.146-0.504,2.373-0.754,3.68-0.754c0.9,0,1.752,0.115,2.557,0.344
			c0.803,0.229,1.564,0.557,2.291,0.979l-0.214,0.316c-0.671-0.404-1.397-0.719-2.185-0.938c-0.787-0.221-1.602-0.332-2.449-0.332
			c-1.253,0-2.432,0.244-3.534,0.729c-1.103,0.486-2.063,1.145-2.886,1.975c-0.82,0.83-1.469,1.799-1.943,2.91
			c-0.479,1.111-0.717,2.297-0.717,3.549c0,1.254,0.211,2.428,0.637,3.521c0.424,1.096,1.025,2.053,1.812,2.873
			c0.785,0.82,1.729,1.471,2.833,1.945c1.104,0.477,2.343,0.715,3.72,0.715c0.829,0,1.624-0.102,2.385-0.305
			c0.759-0.203,1.474-0.498,2.145-0.889v-6.221h-4.554v-0.371H211.26L211.26,322.997z"/>
		<path d="M224.71,321.196c-0.583,0.018-1.134,0.127-1.655,0.33c-0.521,0.203-0.979,0.477-1.376,0.822
			c-0.396,0.344-0.711,0.754-0.94,1.229c-0.229,0.479-0.344,0.99-0.344,1.537v5.824h-0.371v-9.928h0.268l0.023,2.596
			c0.371-0.848,0.945-1.514,1.724-2c0.774-0.484,1.668-0.746,2.674-0.781L224.71,321.196L224.71,321.196z"/>
		<path d="M230.641,325.961c0-0.707,0.132-1.377,0.396-2.012c0.266-0.637,0.631-1.184,1.099-1.643s1.011-0.824,1.628-1.1
			c0.618-0.271,1.289-0.412,2.013-0.412c1.097,0,2.069,0.307,2.927,0.914c0.854,0.609,1.479,1.393,1.865,2.346
			c0-0.514,0.011-1.021,0.026-1.523c0.018-0.502,0.044-1.01,0.079-1.521h0.266v9.93h-0.371v-1.432c0-0.281,0.006-0.561,0.016-0.834
			c0.008-0.271,0.013-0.551,0.013-0.834c-0.193,0.479-0.45,0.914-0.768,1.312c-0.318,0.395-0.687,0.74-1.101,1.033
			c-0.415,0.291-0.874,0.516-1.377,0.674c-0.503,0.16-1.027,0.238-1.575,0.238c-0.724,0-1.395-0.133-2.013-0.396
			c-0.617-0.266-1.16-0.631-1.628-1.1s-0.833-1.012-1.099-1.627C230.772,327.356,230.641,326.686,230.641,325.961z M231.011,325.961
			c0,0.67,0.124,1.293,0.37,1.867c0.248,0.574,0.588,1.076,1.02,1.508c0.435,0.436,0.938,0.773,1.512,1.021
			c0.571,0.248,1.193,0.371,1.864,0.371c0.653,0,1.271-0.123,1.854-0.371s1.095-0.586,1.536-1.021
			c0.438-0.432,0.785-0.936,1.031-1.508c0.248-0.574,0.37-1.195,0.37-1.867c0-0.652-0.122-1.271-0.37-1.854
			c-0.246-0.582-0.593-1.094-1.031-1.535c-0.441-0.441-0.953-0.785-1.536-1.033c-0.582-0.248-1.199-0.371-1.854-0.371
			c-0.671,0-1.293,0.123-1.864,0.371c-0.574,0.248-1.077,0.592-1.512,1.033c-0.432,0.441-0.771,0.953-1.02,1.535
			C231.135,324.69,231.011,325.309,231.011,325.961z"/>
		<path d="M260.584,325.961c0,0.725-0.134,1.396-0.397,2.014c-0.265,0.617-0.632,1.16-1.099,1.627
			c-0.468,0.469-1.017,0.834-1.642,1.1c-0.629,0.266-1.295,0.396-2,0.396c-0.548,0-1.071-0.078-1.574-0.238
			c-0.504-0.158-0.963-0.383-1.377-0.674c-0.415-0.293-0.785-0.639-1.111-1.033c-0.327-0.398-0.579-0.834-0.755-1.312
			c0,0.283,0.004,0.562,0.013,0.834c0.009,0.273,0.014,0.553,0.014,0.834v6.195h-0.371V321.01h0.371v3.045
			c0.39-0.953,1.012-1.734,1.866-2.346c0.856-0.607,1.831-0.914,2.927-0.914c0.705,0,1.371,0.139,1.998,0.412s1.176,0.641,1.644,1.1
			c0.467,0.459,0.834,1.006,1.099,1.643C260.45,324.584,260.584,325.254,260.584,325.961z M260.213,325.961
			c0-0.652-0.124-1.271-0.371-1.854s-0.587-1.094-1.019-1.535c-0.435-0.441-0.94-0.785-1.522-1.033
			c-0.583-0.248-1.201-0.371-1.854-0.371c-0.671,0-1.293,0.123-1.864,0.371c-0.574,0.248-1.082,0.592-1.522,1.033
			c-0.439,0.441-0.786,0.953-1.031,1.535c-0.248,0.584-0.371,1.201-0.371,1.854c0,0.67,0.123,1.293,0.371,1.867
			c0.245,0.574,0.592,1.076,1.031,1.508c0.44,0.436,0.948,0.773,1.522,1.021c0.571,0.248,1.193,0.371,1.864,0.371
			c0.652,0,1.271-0.123,1.854-0.371c0.582-0.248,1.09-0.586,1.522-1.021c0.432-0.432,0.771-0.936,1.019-1.508
			C260.089,327.254,260.213,326.633,260.213,325.961z"/>
		<path d="M269.108,311.083h0.371v12.363c0.317-0.74,0.86-1.363,1.628-1.865c0.77-0.504,1.655-0.756,2.661-0.756
			c0.936,0,1.672,0.275,2.211,0.822c0.538,0.547,0.824,1.262,0.86,2.145v7.148h-0.371v-7.334c-0.035-0.635-0.271-1.188-0.701-1.654
			c-0.433-0.469-1.037-0.719-1.812-0.756c-0.603,0-1.172,0.098-1.708,0.293c-0.538,0.193-1.017,0.463-1.432,0.807
			c-0.415,0.348-0.741,0.762-0.979,1.244c-0.238,0.486-0.357,1.012-0.357,1.576v5.824h-0.371L269.108,311.083L269.108,311.083z"/>
		<path d="M285.734,317.7c0-0.141,0.055-0.264,0.159-0.371c0.105-0.104,0.229-0.158,0.37-0.158c0.142,0,0.265,0.055,0.371,0.158
			c0.104,0.107,0.158,0.23,0.158,0.371c0,0.143-0.054,0.266-0.158,0.371c-0.106,0.107-0.229,0.16-0.371,0.16s-0.265-0.053-0.37-0.16
			C285.787,317.965,285.734,317.842,285.734,317.7z M286.448,330.938h-0.369v-9.928h0.369V330.938z"/>
		<path d="M303.102,329.694l0.265,0.266c-0.459,0.354-0.961,0.631-1.509,0.834s-1.13,0.305-1.747,0.305
			c-0.725,0-1.395-0.133-2.013-0.396s-1.161-0.631-1.628-1.1c-0.468-0.469-0.834-1.01-1.099-1.627
			c-0.267-0.619-0.397-1.289-0.397-2.014c0-0.707,0.133-1.377,0.397-2.012c0.264-0.637,0.631-1.184,1.099-1.643
			c0.467-0.459,1.01-0.824,1.628-1.1c0.618-0.273,1.288-0.412,2.013-0.412c0.617,0,1.204,0.104,1.762,0.307
			c0.557,0.203,1.055,0.48,1.494,0.834c-0.033,0.053-0.077,0.102-0.132,0.146c-0.054,0.043-0.098,0.094-0.133,0.146
			c-0.405-0.336-0.864-0.596-1.377-0.781c-0.512-0.186-1.05-0.279-1.615-0.279c-0.671,0-1.293,0.125-1.866,0.371
			c-0.571,0.248-1.074,0.594-1.509,1.033c-0.433,0.441-0.771,0.953-1.02,1.537c-0.249,0.582-0.37,1.199-0.37,1.852
			c0,0.672,0.123,1.293,0.37,1.867s0.587,1.078,1.02,1.51c0.435,0.434,0.938,0.771,1.509,1.02c0.573,0.248,1.195,0.371,1.866,0.371
			c0.565,0,1.104-0.092,1.615-0.277C302.237,330.264,302.696,330.012,303.102,329.694z"/>
	</g>
	<g>
		<path d="M183.43,338.256h3.786c1.871,0,3.455,0.287,4.752,0.861c1.298,0.572,2.354,1.311,3.164,2.211
			c0.812,0.898,1.398,1.895,1.761,2.992c0.361,1.094,0.543,2.16,0.543,3.201c0,1.412-0.248,2.691-0.741,3.84
			c-0.494,1.146-1.164,2.121-2.013,2.926c-0.847,0.803-1.836,1.42-2.965,1.854c-1.13,0.434-2.33,0.648-3.601,0.648h-4.688
			L183.43,338.256L183.43,338.256z M188.274,356.42c1.185,0,2.31-0.209,3.376-0.623c1.067-0.414,2.009-1.006,2.819-1.773
			c0.812-0.768,1.452-1.703,1.92-2.807s0.701-2.334,0.701-3.693c0-1.006-0.172-2.027-0.516-3.07c-0.347-1.041-0.9-1.994-1.668-2.859
			c-0.771-0.865-1.768-1.57-2.992-2.117c-1.229-0.547-2.715-0.82-4.461-0.82h-3.653v17.766h4.474V356.42z"/>
		<path d="M213.559,355.573c-0.459,0.422-0.992,0.758-1.602,1.006c-0.608,0.246-1.259,0.371-1.946,0.371
			c-0.724,0-1.394-0.135-2.012-0.398s-1.161-0.631-1.628-1.098c-0.468-0.469-0.834-1.01-1.101-1.629
			c-0.265-0.617-0.396-1.287-0.396-2.014c0-0.705,0.133-1.375,0.396-2.012c0.267-0.635,0.633-1.186,1.101-1.654
			c0.467-0.469,1.01-0.838,1.628-1.111c0.617-0.273,1.288-0.41,2.012-0.41c1.095,0,2.018,0.312,2.768,0.939
			c0.75,0.625,1.318,1.416,1.707,2.369c-0.671,0.268-1.386,0.555-2.145,0.861c-0.759,0.309-1.526,0.621-2.303,0.939
			c-0.777,0.316-1.549,0.631-2.317,0.939c-0.768,0.309-1.486,0.604-2.157,0.887c0.354,0.9,0.928,1.627,1.723,2.186
			c0.794,0.555,1.701,0.834,2.727,0.834c0.636,0,1.231-0.111,1.787-0.332c0.557-0.221,1.046-0.533,1.47-0.939L213.559,355.573z
			 M213.982,349.749c-0.37-0.795-0.887-1.447-1.549-1.959c-0.662-0.514-1.47-0.77-2.423-0.77c-0.671,0-1.293,0.123-1.866,0.371
			s-1.075,0.592-1.509,1.033c-0.433,0.441-0.771,0.953-1.02,1.535c-0.25,0.584-0.37,1.201-0.37,1.854
			c0,0.514,0.062,0.98,0.185,1.402c0.653-0.264,1.342-0.547,2.065-0.846c0.723-0.301,1.456-0.598,2.195-0.889
			c0.741-0.293,1.479-0.588,2.212-0.887C212.637,350.295,213.329,350.012,213.982,349.749z"/>
		<path d="M227.353,347.895l-0.265,0.266c-0.3-0.354-0.685-0.613-1.151-0.781c-0.468-0.166-0.878-0.25-1.229-0.25
			c-0.229,0-0.479,0.039-0.741,0.119c-0.266,0.078-0.513,0.197-0.741,0.355c-0.228,0.158-0.419,0.371-0.567,0.637
			c-0.15,0.264-0.227,0.582-0.227,0.951c0,0.494,0.132,0.885,0.396,1.164c0.267,0.283,0.593,0.518,0.979,0.703
			c0.388,0.188,0.815,0.35,1.283,0.49s0.896,0.311,1.284,0.516c0.388,0.203,0.715,0.463,0.979,0.781
			c0.266,0.318,0.397,0.75,0.397,1.297c0,0.371-0.066,0.729-0.198,1.072c-0.133,0.344-0.327,0.648-0.583,0.912
			c-0.256,0.266-0.573,0.477-0.953,0.637c-0.38,0.158-0.815,0.238-1.311,0.238c-0.479,0-1.007-0.094-1.589-0.279
			c-0.584-0.184-1.061-0.506-1.431-0.965c0.054-0.035,0.103-0.076,0.146-0.119s0.093-0.084,0.146-0.119
			c0.105,0.158,0.273,0.311,0.503,0.449c0.229,0.143,0.479,0.262,0.741,0.357c0.266,0.098,0.529,0.172,0.794,0.225
			c0.267,0.053,0.504,0.08,0.715,0.08c0.212,0,0.475-0.039,0.781-0.119c0.31-0.08,0.601-0.211,0.874-0.395
			c0.273-0.188,0.507-0.43,0.701-0.73c0.193-0.299,0.291-0.678,0.291-1.137c0-0.531-0.132-0.945-0.396-1.246
			c-0.265-0.299-0.592-0.541-0.979-0.729c-0.389-0.186-0.816-0.348-1.284-0.488c-0.468-0.143-0.896-0.311-1.284-0.504
			s-0.715-0.449-0.979-0.77c-0.267-0.314-0.397-0.75-0.397-1.297c0-0.424,0.075-0.789,0.228-1.098
			c0.147-0.311,0.353-0.564,0.606-0.77c0.256-0.203,0.543-0.354,0.86-0.449c0.318-0.098,0.636-0.146,0.953-0.146
			c0.389,0,0.834,0.084,1.337,0.252C226.545,347.174,226.982,347.471,227.353,347.895z"/>
		<path d="M235.931,343.551c0-0.141,0.053-0.264,0.159-0.371c0.104-0.104,0.229-0.158,0.37-0.158s0.265,0.055,0.371,0.158
			c0.104,0.107,0.158,0.23,0.158,0.371c0,0.143-0.055,0.266-0.158,0.371c-0.106,0.107-0.229,0.16-0.371,0.16
			c-0.144,0-0.266-0.053-0.37-0.16C235.983,343.817,235.931,343.694,235.931,343.551z M236.646,356.79h-0.371v-9.928h0.371V356.79z"
			/>
		<path d="M245.17,351.813c0-0.707,0.133-1.377,0.396-2.012c0.267-0.637,0.633-1.184,1.101-1.643c0.467-0.459,1.01-0.824,1.628-1.1
			c0.618-0.273,1.288-0.412,2.012-0.412c1.095,0,2.069,0.307,2.926,0.914c0.857,0.609,1.479,1.393,1.867,2.346
			c0-0.514,0.008-1.021,0.026-1.523c0.017-0.502,0.044-1.01,0.079-1.521h0.265v10.141c0,0.562-0.075,1.121-0.225,1.668
			c-0.15,0.547-0.42,1.033-0.81,1.457c-0.389,0.422-0.914,0.768-1.574,1.033c-0.662,0.264-1.506,0.395-2.527,0.395
			c-0.318,0-0.641-0.02-0.967-0.064c-0.327-0.045-0.677-0.143-1.047-0.291c-0.369-0.15-0.76-0.357-1.164-0.621
			c-0.406-0.268-0.829-0.619-1.271-1.061l0.238-0.266c0.439,0.424,0.854,0.764,1.244,1.02c0.389,0.256,0.755,0.449,1.099,0.582
			c0.345,0.133,0.671,0.223,0.979,0.268c0.308,0.043,0.596,0.064,0.858,0.064c0.937,0,1.708-0.113,2.317-0.344
			c0.606-0.229,1.089-0.547,1.44-0.953c0.354-0.406,0.604-0.887,0.755-1.441c0.149-0.559,0.233-1.162,0.252-1.814
			c0-0.088,0-0.154,0-0.199c0-0.043,0-0.104,0-0.186c0-0.078,0.006-0.186,0.015-0.316s0.014-0.32,0.014-0.568
			c0-0.02,0-0.109,0-0.277s0.004-0.35,0.015-0.543c0.009-0.195,0.014-0.375,0.014-0.543c0-0.166,0-0.27,0-0.305
			c-0.194,0.477-0.45,0.912-0.771,1.311c-0.315,0.398-0.684,0.742-1.099,1.033s-0.873,0.516-1.376,0.676
			c-0.504,0.158-1.029,0.238-1.576,0.238c-0.724,0-1.394-0.133-2.012-0.398c-0.618-0.264-1.161-0.631-1.628-1.098
			c-0.469-0.469-0.834-1.01-1.101-1.629C245.303,353.208,245.17,352.538,245.17,351.813z M245.541,351.813
			c0,0.67,0.123,1.293,0.37,1.867c0.246,0.574,0.587,1.076,1.02,1.508c0.434,0.434,0.936,0.773,1.509,1.021s1.195,0.371,1.866,0.371
			c0.653,0,1.271-0.123,1.854-0.371s1.095-0.586,1.536-1.021c0.438-0.432,0.783-0.936,1.03-1.508
			c0.247-0.574,0.371-1.195,0.371-1.867c0-0.652-0.124-1.271-0.371-1.854s-0.592-1.094-1.03-1.535
			c-0.441-0.441-0.953-0.785-1.536-1.033c-0.582-0.248-1.2-0.371-1.854-0.371c-0.671,0-1.293,0.123-1.866,0.371
			s-1.075,0.592-1.509,1.033c-0.433,0.441-0.771,0.953-1.02,1.535C245.662,350.543,245.541,351.161,245.541,351.813z"/>
		<path d="M264.814,346.862h0.268l0.024,2.596c0.354-0.83,0.917-1.5,1.694-2.012c0.776-0.514,1.668-0.77,2.674-0.77
			c0.938,0,1.672,0.273,2.211,0.82c0.538,0.547,0.824,1.262,0.86,2.145v7.148h-0.371v-7.332c-0.035-0.637-0.27-1.189-0.701-1.656
			c-0.433-0.467-1.037-0.719-1.812-0.754c-0.603,0-1.17,0.098-1.708,0.291c-0.538,0.195-1.017,0.463-1.432,0.809
			s-0.74,0.76-0.979,1.244c-0.238,0.486-0.357,1.012-0.357,1.574v5.826h-0.371L264.814,346.862L264.814,346.862z"/>
		<path d="M289.647,355.573c-0.459,0.422-0.992,0.758-1.602,1.006c-0.608,0.246-1.258,0.371-1.946,0.371
			c-0.724,0-1.394-0.135-2.012-0.398s-1.161-0.631-1.628-1.098c-0.469-0.469-0.834-1.01-1.1-1.629
			c-0.266-0.617-0.396-1.287-0.396-2.014c0-0.705,0.133-1.375,0.396-2.012c0.266-0.635,0.631-1.186,1.1-1.654
			c0.467-0.469,1.01-0.838,1.628-1.111s1.288-0.41,2.012-0.41c1.095,0,2.019,0.312,2.77,0.939c0.75,0.625,1.316,1.416,1.706,2.369
			c-0.672,0.268-1.387,0.555-2.146,0.861c-0.759,0.309-1.526,0.621-2.303,0.939c-0.777,0.316-1.549,0.631-2.317,0.939
			c-0.768,0.309-1.486,0.604-2.156,0.887c0.354,0.9,0.928,1.627,1.722,2.186c0.794,0.555,1.703,0.834,2.727,0.834
			c0.638,0,1.231-0.111,1.787-0.332c0.558-0.221,1.046-0.533,1.47-0.939L289.647,355.573z M290.071,349.749
			c-0.368-0.795-0.887-1.447-1.549-1.959c-0.662-0.514-1.47-0.77-2.423-0.77c-0.671,0-1.293,0.123-1.866,0.371
			c-0.571,0.248-1.076,0.592-1.509,1.033s-0.771,0.953-1.02,1.535c-0.249,0.584-0.37,1.201-0.37,1.854
			c0,0.514,0.062,0.98,0.185,1.402c0.653-0.264,1.343-0.547,2.065-0.846c0.724-0.301,1.456-0.598,2.197-0.889
			c0.739-0.293,1.479-0.588,2.211-0.887S289.418,350.012,290.071,349.749z"/>
		<path d="M303.362,347.047c-0.582,0.018-1.135,0.127-1.652,0.33c-0.521,0.203-0.979,0.477-1.377,0.822
			c-0.398,0.344-0.711,0.754-0.94,1.229c-0.229,0.479-0.344,0.99-0.344,1.537v5.824h-0.371v-9.928h0.267l0.025,2.596
			c0.37-0.848,0.943-1.514,1.721-2c0.776-0.484,1.67-0.746,2.676-0.781v0.369h-0.004V347.047z"/>
	</g>
</g>
<text transform="matrix(1 0 0 1 311.0957 356.606)" font-family="'JosefinSans-Light'" font-size="51.963">E</text>
</svg>
